<svg width="23" height="22" fill="none" xmlns="http://www.w3.org/2000/svg"><path d="M8.953 12.964l-.087-.896.087.896zm9.661-.935l-.087-.896.087.896zM1 .85a.9.9 0 100 1.8V.85zm3.23 2.226l.887-.154-.886.154zm.38 2.174l-.887.154.887-.154zm.883 5.077l.886-.154-.886.154zM18.4 5.658l.026-.9-.026.9zm2.891 1.146l-.806.4.806-.4zm-.852-.877l.423-.795-.423.795zm.082 5.726l-.46-.773.46.773zm.788-.867l-.815-.383.814.383zM6.963 12.958l.31-.845-.31.845zm-.937-.714l-.732.523.732-.523zM3.566 1.837l.367-.822-.367.822zm.423.355l-.747.502.747-.502zm5.05 11.668l9.662-.935-.174-1.792-9.661.935.173 1.792zM2.654.85H1v1.8h1.654V.85zm.69 2.38l.378 2.174 1.773-.308-.378-2.174-1.773.308zm.378 2.174l.883 5.078 1.773-.309-.883-5.077-1.773.308zm14.705-.645L4.635 4.35l-.053 1.8 13.792.408.053-1.8zM22.4 8.85c0-.527 0-.976-.029-1.344-.03-.379-.097-.747-.272-1.102l-1.613.8c.032.065.07.177.09.446.023.28.024.644.024 1.2h1.8zm-4.026-2.292c.557.016.921.028 1.2.058.268.03.379.07.443.105l.846-1.589c-.348-.186-.715-.263-1.092-.305-.367-.04-.816-.053-1.344-.068l-.053 1.799zm3.725-.154a2.9 2.9 0 00-1.236-1.272l-.846 1.589a1.1 1.1 0 01.469.482l1.613-.799zM18.7 12.925c.494-.048.915-.088 1.26-.149.355-.062.698-.157 1.021-.35l-.92-1.546c-.06.036-.165.08-.413.124-.26.045-.6.079-1.122.13l.174 1.791zm1.9-4.075c0 .525 0 .867-.021 1.13-.02.251-.054.359-.084.423l1.629.766c.16-.34.222-.69.25-1.05.027-.349.026-.772.026-1.268h-1.8zm.382 3.577a2.9 2.9 0 001.142-1.258l-1.629-.766a1.1 1.1 0 01-.433.477l.92 1.547zm-12.116-.359a16.44 16.44 0 01-1.154.09c-.259.005-.371-.02-.439-.045l-.62 1.69c.36.132.722.161 1.091.155.357-.007.79-.049 1.295-.098l-.173-1.792zm-4.261-1.586c.087.5.16.928.25 1.275.091.357.215.698.439 1.01l1.464-1.046c-.042-.059-.095-.16-.16-.412a16.429 16.429 0 01-.22-1.136l-1.773.309zm2.668 1.631a1.1 1.1 0 01-.515-.393l-1.464 1.047a2.9 2.9 0 001.359 1.036l.62-1.69zM2.654 2.65c.253 0 .393 0 .495.008.091.007.085.016.05 0l.734-1.643a1.91 1.91 0 00-.649-.152C3.1.85 2.88.85 2.654.85v1.8zm2.463.272a8.897 8.897 0 00-.12-.619 1.91 1.91 0 00-.261-.613L3.242 2.694c-.021-.031-.013-.039.009.05.025.1.05.237.093.486l1.773-.308zM3.2 2.659a.1.1 0 01.042.035L4.736 1.69a1.9 1.9 0 00-.803-.675L3.2 2.659zM9.6 18.25a1.1 1.1 0 01-1.1 1.1v1.8a2.9 2.9 0 002.9-2.9H9.6zm-1.1 1.1a1.1 1.1 0 01-1.1-1.1H5.6a2.9 2.9 0 002.9 2.9v-1.8zm-1.1-1.1a1.1 1.1 0 011.1-1.1v-1.8a2.9 2.9 0 00-2.9 2.9h1.8zm1.1-1.1a1.1 1.1 0 011.1 1.1h1.8a2.9 2.9 0 00-2.9-2.9v1.8zm10.6 1.1a1.1 1.1 0 01-1.1 1.1v1.8a2.9 2.9 0 002.9-2.9h-1.8zm-1.1 1.1a1.1 1.1 0 01-1.1-1.1h-1.8a2.9 2.9 0 002.9 2.9v-1.8zm-1.1-1.1a1.1 1.1 0 011.1-1.1v-1.8a2.9 2.9 0 00-2.9 2.9h1.8zm1.1-1.1a1.1 1.1 0 011.1 1.1h1.8a2.9 2.9 0 00-2.9-2.9v1.8z" fill="#262F56"/></svg>